<svg xmlns="http://www.w3.org/2000/svg" xmlns:xlink="http://www.w3.org/1999/xlink" viewBox="0 0 581.31 581.36"><defs><style>.a{opacity:0.55;}.aa,.b,.c,.d,.e,.f,.g,.h,.i,.j,.k,.l,.m,.n,.o,.p,.q,.r,.s,.t,.u,.v,.w,.x,.y,.z{fill:none;stroke:#0f88a8;stroke-miterlimit:10;stroke-width:0.72px;}.c{opacity:0.96;}.d{opacity:0.92;}.e{opacity:0.84;}.f{opacity:0.8;}.g{opacity:0.76;}.h{opacity:0.72;}.i{opacity:0.68;}.j{opacity:0.64;}.k{opacity:0.6;}.l{opacity:0.56;}.m{opacity:0.52;}.n{opacity:0.44;}.o{opacity:0.48;}.p{opacity:0.4;}.q{opacity:0.36;}.r{opacity:0.32;}.s{opacity:0.28;}.t{opacity:0.24;}.u{opacity:0.2;}.v{opacity:0.16;}.w{opacity:0.12;}.x{opacity:0.08;}.y{opacity:0.04;}.z{opacity:0;}.aa{opacity:0.88;}.ab{fill:url(#a);}.ac{fill:#fff;}</style><linearGradient id="a" x1="290.62" y1="576.71" x2="290.62" y2="253.09" gradientUnits="userSpaceOnUse"><stop offset="0.72" stop-color="#02658e"/><stop offset="0.77" stop-color="#02658e" stop-opacity="0.97"/><stop offset="0.82" stop-color="#02658e" stop-opacity="0.89"/><stop offset="0.86" stop-color="#02658e" stop-opacity="0.76"/><stop offset="0.91" stop-color="#02658e" stop-opacity="0.57"/><stop offset="0.95" stop-color="#02658e" stop-opacity="0.32"/><stop offset="1" stop-color="#02658e" stop-opacity="0.02"/><stop offset="1" stop-color="#02658e" stop-opacity="0"/></linearGradient></defs><title>circle</title><g class="a"><rect class="b" x="202.64" y="202.64" width="176.03" height="176.03" rx="88.01" ry="88.01"/><path class="c" d="M290.65,194.64h0a96,96,0,0,1,96,96v0a96,96,0,0,1-96,96h0a96,96,0,0,1-96-96v0a96,96,0,0,1,96-96Z"/><rect class="d" x="186.64" y="186.64" width="208.03" height="208.03" rx="104.02" ry="104.02"/><rect class="e" x="170.64" y="170.64" width="240.04" height="240.04" rx="120.02" ry="120.02"/><rect class="f" x="162.63" y="162.63" width="256.04" height="256.04" rx="128.02" ry="128.02"/><rect class="g" x="154.63" y="154.63" width="272.04" height="272.04" rx="136.02" ry="136.02"/><rect class="h" x="146.63" y="146.63" width="288.05" height="288.05" rx="144.02" ry="144.02"/><rect class="i" x="138.63" y="138.63" width="304.05" height="304.05" rx="152.02" ry="152.02"/><path class="j" d="M290.65,130.63h0a160,160,0,0,1,160,160v0a160,160,0,0,1-160,160h0a160,160,0,0,1-160-160v0A160,160,0,0,1,290.65,130.63Z"/><rect class="k" x="122.63" y="122.63" width="336.05" height="336.05" rx="168.03" ry="168.03"/><rect class="l" x="114.63" y="114.63" width="352.06" height="352.06" rx="176.03" ry="176.03"/><rect class="m" x="106.63" y="106.63" width="368.06" height="368.06" rx="184.03" ry="184.03"/><rect class="n" x="89.52" y="89.52" width="402.28" height="402.28" rx="201.14" ry="201.14"/><rect class="o" x="98.26" y="98.26" width="384.79" height="384.79" rx="192.39" ry="192.39"/><rect class="p" x="80.37" y="80.37" width="420.56" height="420.56" rx="210.28" ry="210.28"/><rect class="q" x="72.37" y="72.37" width="436.57" height="436.57" rx="218.28" ry="218.28"/><rect class="r" x="64.37" y="64.37" width="452.57" height="452.57" rx="226.28" ry="226.28"/><path class="s" d="M290.65,56.37h0A234.28,234.28,0,0,1,524.94,290.65v0A234.29,234.29,0,0,1,290.65,524.94h0A234.28,234.28,0,0,1,56.37,290.66v0A234.29,234.29,0,0,1,290.65,56.37Z"/><rect class="t" x="48.37" y="48.37" width="484.57" height="484.57" rx="242.29" ry="242.29"/><rect class="u" x="40.37" y="40.37" width="500.58" height="500.58" rx="250.29" ry="250.29"/><rect class="v" x="32.37" y="32.37" width="516.58" height="516.58" rx="258.29" ry="258.29"/><rect class="w" x="24.36" y="24.36" width="532.58" height="532.58" rx="266.29" ry="266.29"/><rect class="x" x="16.36" y="16.36" width="548.58" height="548.58" rx="274.29" ry="274.29"/><rect class="y" x="8.36" y="8.36" width="564.59" height="564.59" rx="282.29" ry="282.29"/><rect class="z" x="0.36" y="0.36" width="580.59" height="580.59" rx="290.29" ry="290.29"/><rect class="aa" x="178.64" y="178.64" width="224.04" height="224.04" rx="112.02" ry="112.02"/><rect class="b" x="210.64" y="210.64" width="160.03" height="160.03" rx="80.01" ry="80.01"/><rect class="b" x="218.64" y="218.64" width="144.02" height="144.02" rx="72.01" ry="72.01"/><rect class="b" x="226.64" y="226.64" width="128.02" height="128.02" rx="64.01" ry="64.01"/></g><rect class="ab" x="0.12" y="232.36" width="581" height="349"/><path class="ac" d="M290.65,259.2h0A33.71,33.71,0,0,0,257,292.91h0a33.7,33.7,0,0,0,33.7,33.71h0a33.71,33.71,0,0,0,33.71-33.71h0A33.71,33.71,0,0,0,290.65,259.2Zm19.86,43.18a10.27,10.27,0,0,1-1.17,4.78l-16.49-16.49-4.39,4.39,20.31,20.31-2.17,2.17,0,0a16.56,16.56,0,0,0-11.7-4.84H281.14a10.34,10.34,0,0,1-10.34-10.34v-19A10.34,10.34,0,0,1,281.14,273h19a10.34,10.34,0,0,1,10.34,10.34Z"/><path class="ac" d="M321.12,348.36v-5.29a2.87,2.87,0,0,0-2.87-2.86h-6.07v.71h6.07a2.14,2.14,0,0,1,2.14,2.15v1.22l-.26-.19a2.32,2.32,0,0,0-1.25-.38h-6.42a2.25,2.25,0,0,0-2.23,2.24v.16a2.23,2.23,0,0,0,2.23,2.23h6.42a2.24,2.24,0,0,0,1.25-.38l.26-.18v.56Zm-2.24-.72h-6.42a1.52,1.52,0,0,1-1.51-1.52V346a1.52,1.52,0,0,1,1.51-1.51h6.42a1.51,1.51,0,0,1,1.51,1.51v.16a1.52,1.52,0,0,1-1.51,1.52Z"/><path class="ac" d="M296.71,344.84v-2.4a2.25,2.25,0,0,0-2.23-2.24h-6.42a2.24,2.24,0,0,0-2.24,2.24v5.92h10.89v-.72H286.54v-2.8Zm-10.17-2.4a1.53,1.53,0,0,1,1.52-1.52h6.42a1.53,1.53,0,0,1,1.52,1.52v1.68h-9.46Z"/><path class="ac" d="M276.48,348.36h5.16a2.89,2.89,0,0,0,1.86-.69l.29-.24v.93h.71v-8.15h-.71v5.28a2.15,2.15,0,0,1-2.15,2.15h-5.16a2.15,2.15,0,0,1-2.14-2.15v-5.28h-.72v5.28A2.87,2.87,0,0,0,276.48,348.36Z"/><path class="ac" d="M300.89,340.92h5.16a2.15,2.15,0,0,1,2.14,2.12h.72a2.86,2.86,0,0,0-2.86-2.83h-5.16a2.88,2.88,0,0,0-1.86.68l-.29.24v-.93H298v8.15h.71v-5.28a2.16,2.16,0,0,1,2.15-2.15Z"/><path class="ac" d="M269.44,337.47h-5.16a2.87,2.87,0,0,0-2.87,2.86v5.16a2.89,2.89,0,0,0,2.87,2.87h5.16a2.8,2.8,0,0,0,1.63-.52l.12-.08.54.53.51-.51-.54-.53.09-.12a2.89,2.89,0,0,0,.51-1.64v-5.16a2.86,2.86,0,0,0-2.86-2.86Zm2.14,8a2.13,2.13,0,0,1-.27,1.05l-.12.19-4.08-4.08-.51.51,4.09,4.09-.2.11a2.14,2.14,0,0,1-1.05.28h-5.16a2.16,2.16,0,0,1-2.15-2.15v-5.16a2.15,2.15,0,0,1,2.15-2.14h5.16a2.14,2.14,0,0,1,2.14,2.14Z"/></svg>